#Comment line ignore any data following # character 
#Hierarchical Translation and Rotation (.htr) file 
[Header]	
#Header keywords are followed by a single value 
FileType HTR		#Single word string
DataType HTRS		#Translation followed by rotation and scale data
FileVersion 1		#integer
NumSegments 64		#integer
NumFrames 3		#integer
DataFrameRate 30		#integer, data frame rate in this file
EulerRotationOrder ZYX
CalibrationUnits mm
RotationUnits Degrees
GlobalAxisofGravity Y
BoneLengthAxis Y
ScaleFactor 1.00
[SegmentNames&Hierarchy]
#CHILD	PARENT
Pinger_Root GLOBAL
Pelvis Pinger_Root
L_Hip Pelvis
R_Hip Pelvis
Rear_Leg01 Pelvis
Spine1 Pelvis
L_Leg01 L_Hip
L_Leg02 L_Leg01
L_Leg03 L_Leg02
L_Foot L_Leg03
L_Toe1_01 L_Foot
L_Toe2_01 L_Foot
L_Toe3_01 L_Foot
planeAlignerLeft L_Foot
L_Toe1_02 L_Toe1_01
L_Toe1_03 L_Toe1_02
L_Toe2_02 L_Toe2_01
L_Toe2_03 L_Toe2_02
L_Toe3_02 L_Toe3_01
L_Toe3_03 L_Toe3_02
planeLockWeightLeft planeAlignerLeft
R_Leg01 R_Hip
R_Leg02 R_Leg01
R_Leg03 R_Leg02
R_Foot R_Leg03
planeAlignerRight R_Foot
R_Toe1_01 R_Foot
R_Toe2_01 R_Foot
R_Toe3_01 R_Foot
planeLockWeightRight planeAlignerRight
R_Toe1_02 R_Toe1_01
R_Toe1_03 R_Toe1_02
R_Toe2_02 R_Toe2_01
R_Toe2_03 R_Toe2_02
R_Toe3_02 R_Toe3_01
R_Toe3_03 R_Toe3_02
Rear_Leg02 Rear_Leg01
Rear_Leg03 Rear_Leg02
Rear_Leg04 Rear_Leg03
Rear_Foot Rear_Leg04
planeAlignerCenter Rear_Foot
Rear_Toe1_01 Rear_Foot
Rear_Toe2_01 Rear_Foot
Rear_Toe3_01 Rear_Foot
planeLockWeightCenter planeAlignerCenter
Rear_Toe1_02 Rear_Toe1_01
Rear_Toe1_03 Rear_Toe1_02
Rear_Toe2_02 Rear_Toe2_01
Rear_Toe2_03 Rear_Toe2_02
Rear_Toe3_02 Rear_Toe3_01
Rear_Toe3_03 Rear_Toe3_02
Back_Bone Spine1
Head Spine1
Motor_Bone Back_Bone
Ping_Mechanism Back_Bone
BN_LookIK Head
bottomMouth Head
L_Mouth01 Head
L_mouthFront Head
mouthGun Head
R_Mouth01 Head
R_mouthFront Head
TopMouth Head
weapon_bone Head
[BasePosition]
#SegmentName Tx, Ty, Tz, Rx, Ry, Rz, BoneLength
Pinger_Root 0.000000 0.000000 0.000000 -90.000000 0.000000 0.000000 10.000000 
Pelvis 0.000000 0.000000 0.000000 0.000000 0.000000 0.000000 10.000000 
L_Hip 0.000000 0.000000 0.000000 0.000000 0.000000 0.000000 10.000000 
R_Hip 0.000000 0.000000 0.000000 0.000000 0.000000 0.000000 10.000000 
Rear_Leg01 0.000000 0.000000 0.000000 0.000000 0.000000 0.000000 10.000000 
Spine1 0.000000 0.000000 0.000000 0.000000 0.000000 0.000000 10.000000 
L_Leg01 0.000000 0.000000 0.000000 0.000000 0.000000 0.000000 10.000000 
L_Leg02 0.000000 0.000000 0.000000 0.000000 0.000000 0.000000 10.000000 
L_Leg03 0.000000 0.000000 0.000000 0.000000 0.000000 0.000000 10.000000 
L_Foot 0.000000 0.000000 0.000000 0.000000 0.000000 0.000000 10.000000 
L_Toe1_01 0.000000 0.000000 0.000000 0.000000 0.000000 0.000000 10.000000 
L_Toe2_01 0.000000 0.000000 0.000000 0.000000 0.000000 0.000000 10.000000 
L_Toe3_01 0.000000 0.000000 0.000000 0.000000 0.000000 0.000000 10.000000 
planeAlignerLeft 0.000000 0.000000 0.000000 0.000000 0.000000 0.000000 10.000000 
L_Toe1_02 0.000000 0.000000 0.000000 0.000000 0.000000 0.000000 10.000000 
L_Toe1_03 0.000000 0.000000 0.000000 0.000000 0.000000 0.000000 10.000000 
L_Toe2_02 0.000000 0.000000 0.000000 0.000000 0.000000 0.000000 10.000000 
L_Toe2_03 0.000000 0.000000 0.000000 0.000000 0.000000 0.000000 10.000000 
L_Toe3_02 0.000000 0.000000 0.000000 0.000000 0.000000 0.000000 10.000000 
L_Toe3_03 0.000000 0.000000 0.000000 0.000000 0.000000 0.000000 10.000000 
planeLockWeightLeft 0.000000 0.000000 0.000000 0.000000 0.000000 0.000000 10.000000 
R_Leg01 0.000000 0.000000 0.000000 0.000000 0.000000 0.000000 10.000000 
R_Leg02 0.000000 0.000000 0.000000 0.000000 0.000000 0.000000 10.000000 
R_Leg03 0.000000 0.000000 0.000000 0.000000 0.000000 0.000000 10.000000 
R_Foot 0.000000 0.000000 0.000000 0.000000 0.000000 0.000000 10.000000 
planeAlignerRight 0.000000 0.000000 0.000000 0.000000 0.000000 0.000000 10.000000 
R_Toe1_01 0.000000 0.000000 0.000000 0.000000 0.000000 0.000000 10.000000 
R_Toe2_01 0.000000 0.000000 0.000000 0.000000 0.000000 0.000000 10.000000 
R_Toe3_01 0.000000 0.000000 0.000000 0.000000 0.000000 0.000000 10.000000 
planeLockWeightRight 0.000000 0.000000 0.000000 0.000000 0.000000 0.000000 10.000000 
R_Toe1_02 0.000000 0.000000 0.000000 0.000000 0.000000 0.000000 10.000000 
R_Toe1_03 0.000000 0.000000 0.000000 0.000000 0.000000 0.000000 10.000000 
R_Toe2_02 0.000000 0.000000 0.000000 0.000000 0.000000 0.000000 10.000000 
R_Toe2_03 0.000000 0.000000 0.000000 0.000000 0.000000 0.000000 10.000000 
R_Toe3_02 0.000000 0.000000 0.000000 0.000000 0.000000 0.000000 10.000000 
R_Toe3_03 0.000000 0.000000 0.000000 0.000000 0.000000 0.000000 10.000000 
Rear_Leg02 0.000000 0.000000 0.000000 0.000000 0.000000 0.000000 10.000000 
Rear_Leg03 0.000000 0.000000 0.000000 0.000000 0.000000 0.000000 10.000000 
Rear_Leg04 0.000000 0.000000 0.000000 0.000000 0.000000 0.000000 10.000000 
Rear_Foot 0.000000 0.000000 0.000000 0.000000 0.000000 0.000000 10.000000 
planeAlignerCenter 0.000000 0.000000 0.000000 0.000000 0.000000 0.000000 10.000000 
Rear_Toe1_01 0.000000 0.000000 0.000000 0.000000 0.000000 0.000000 10.000000 
Rear_Toe2_01 0.000000 0.000000 0.000000 0.000000 0.000000 0.000000 10.000000 
Rear_Toe3_01 0.000000 0.000000 0.000000 0.000000 0.000000 0.000000 10.000000 
planeLockWeightCenter 0.000000 0.000000 0.000000 0.000000 0.000000 0.000000 10.000000 
Rear_Toe1_02 0.000000 0.000000 0.000000 0.000000 0.000000 0.000000 10.000000 
Rear_Toe1_03 0.000000 0.000000 0.000000 0.000000 0.000000 0.000000 10.000000 
Rear_Toe2_02 0.000000 0.000000 0.000000 0.000000 0.000000 0.000000 10.000000 
Rear_Toe2_03 0.000000 0.000000 0.000000 0.000000 0.000000 0.000000 10.000000 
Rear_Toe3_02 0.000000 0.000000 0.000000 0.000000 0.000000 0.000000 10.000000 
Rear_Toe3_03 0.000000 0.000000 0.000000 0.000000 0.000000 0.000000 10.000000 
Back_Bone 0.000000 0.000000 0.000000 0.000000 0.000000 0.000000 10.000000 
Head 0.000000 0.000000 0.000000 0.000000 0.000000 0.000000 10.000000 
Motor_Bone 0.000000 0.000000 0.000000 0.000000 0.000000 0.000000 10.000000 
Ping_Mechanism 0.000000 0.000000 0.000000 0.000000 0.000000 0.000000 10.000000 
BN_LookIK 0.000000 0.000000 0.000000 0.000000 0.000000 0.000000 10.000000 
bottomMouth 0.000000 0.000000 0.000000 0.000000 0.000000 0.000000 10.000000 
L_Mouth01 0.000000 0.000000 0.000000 0.000000 0.000000 0.000000 10.000000 
L_mouthFront 0.000000 0.000000 0.000000 0.000000 0.000000 0.000000 10.000000 
mouthGun 0.000000 0.000000 0.000000 0.000000 0.000000 0.000000 10.000000 
R_Mouth01 0.000000 0.000000 0.000000 0.000000 0.000000 0.000000 10.000000 
R_mouthFront 0.000000 0.000000 0.000000 0.000000 0.000000 0.000000 10.000000 
TopMouth 0.000000 0.000000 0.000000 0.000000 0.000000 0.000000 10.000000 
weapon_bone 0.000000 0.000000 0.000000 0.000000 0.000000 0.000000 10.000000 
#Beginning of Data. Separated by tabs
#Fr	Tx	Ty	Tz	Rx	Ry	Rz	SF
[Pinger_Root]
8 0.000000 0.000000 0.000000 -0.000075 -0.000000 -0.000020 0.000000
9 0.000000 0.000000 0.000000 -0.000075 -0.000000 -0.000020 0.000000
10 0.000000 0.000000 0.000000 -0.000075 -0.000000 -0.000020 0.000000
[Pelvis]
8 200.922638 945.645020 4431.947754 -62.917820 -85.530693 60.116573 4536.163086
9 312.887878 968.889954 4432.087402 -51.573536 -85.187485 49.960342 4547.531738
10 445.680603 995.604980 4429.795410 -41.927677 -84.700539 41.502922 4562.121094
[L_Hip]
8 5.766392 125.831482 872.656799 160.158691 -45.484905 122.312202 881.701050
9 5.766392 125.831482 872.656799 160.158691 -45.484905 122.312202 881.701050
10 5.766392 125.831482 872.656799 160.158691 -45.484894 122.312202 881.701050
[R_Hip]
8 5.765438 125.836372 -872.654907 38.087826 49.812672 125.703735 881.699829
9 5.765438 125.836372 -872.654907 38.087833 49.812687 125.703735 881.699829
10 5.765438 125.836372 -872.654907 38.087845 49.812691 125.703735 881.699829
[Rear_Leg01]
8 -192.298416 -925.602966 -0.001907 174.536911 -0.219108 -159.326477 945.367432
9 -192.298416 -925.602966 -0.001907 175.576660 -1.736532 -158.953262 945.367432
10 -192.298416 -925.602966 -0.001907 176.607681 -3.260450 -158.607224 945.367432
[Spine1]
8 290.604584 5.007505 0.000477 5.346375 -6.453625 18.298195 290.647736
9 290.604584 5.007505 0.000477 6.230434 -8.862885 18.568136 290.647736
10 290.604584 5.007505 0.000477 7.669352 -11.298791 18.886930 290.647736
[L_Leg01]
8 761.932007 -0.002384 -0.069261 25.442396 -19.405333 -15.068926 761.932068
9 761.932007 -0.002384 -0.069261 23.002171 -16.596252 -17.715185 761.932068
10 761.932007 -0.002384 -0.069261 20.138365 -14.309478 -18.603048 761.932068
[L_Leg02]
8 1441.140503 -0.000954 -0.000715 1.706665 -0.156700 -120.521629 1441.140503
9 1441.140503 -0.000954 -0.000715 1.870517 -0.120950 -117.714226 1441.140503
10 1441.140503 -0.000954 -0.000715 2.135669 -0.087202 -116.975639 1441.140503
[L_Leg03]
8 1686.963989 -0.000715 -0.000954 -0.027498 0.010208 117.040321 1686.963989
9 1686.963989 -0.000715 -0.000954 -0.034072 0.012493 119.196938 1686.963989
10 1686.963989 -0.000715 -0.000954 -0.036326 0.017292 120.875595 1686.963989
[L_Foot]
8 3041.570068 -30.715107 11.297464 1.383036 13.294919 52.118454 3041.746094
9 3041.570068 -30.715107 11.297464 -1.481599 8.699659 50.338066 3041.746094
10 3041.570068 -30.715107 11.297464 -5.602946 3.972039 49.094982 3041.746094
[L_Toe1_01]
8 -188.216690 -224.732346 -21.137953 93.774124 -6.866130 -172.644836 293.899567
9 -188.216690 -224.732346 -21.137953 90.614937 -6.588846 -168.834946 293.899567
10 -188.216690 -224.732346 -21.137953 86.428596 -5.572799 -163.353409 293.899567
[L_Toe2_01]
8 200.746536 -219.926590 148.838394 -90.319832 -26.523739 -51.844170 332.896027
9 200.746536 -219.926590 148.838394 -86.919724 -22.657310 -57.640499 332.896027
10 200.746536 -219.926590 148.838394 -83.947052 -17.370289 -62.681049 332.896027
[L_Toe3_01]
8 188.832520 -219.859131 -191.078659 -99.669418 14.074456 -66.780060 347.140900
9 188.832520 -219.859131 -191.078659 -99.221130 15.337343 -70.850189 347.140900
10 188.832520 -219.859131 -191.078659 -98.862190 17.474255 -75.288437 347.140900
[planeAlignerLeft]
8 32.991947 -581.458557 101.090607 169.306686 -76.298271 89.968506 591.102234
9 42.220165 -656.370911 83.369568 169.716217 -79.207123 89.542549 662.990051
10 54.599312 -752.563110 48.526806 170.661621 -83.067490 88.617996 756.099976
[L_Toe1_02]
8 413.761139 0.000477 0.000000 0.001385 -25.885044 0.001385 413.761139
9 413.761139 0.000477 0.000000 0.001385 -25.866779 0.001385 413.761139
10 413.761139 0.000477 0.000000 0.001385 -25.848507 0.001385 413.761139
[L_Toe1_03]
8 464.317322 0.000358 -0.000089 0.003777 53.791245 0.003777 464.317322
9 464.317322 0.000358 -0.000089 0.003710 53.115696 0.003710 464.317322
10 464.317322 0.000358 -0.000089 0.003471 50.461098 0.003471 464.317322
[L_Toe2_02]
8 342.235809 -0.000477 0.000238 0.001187 -72.825447 0.001187 342.235809
9 342.235809 -0.000477 0.000238 0.001195 -68.508789 0.001195 342.235809
10 342.235809 -0.000477 0.000238 -0.000597 -59.728966 -0.000597 342.235809
[L_Toe2_03]
8 420.210846 -0.000715 0.000000 0.038856 86.538239 0.038856 420.210846
9 420.210846 -0.000715 0.000000 0.009875 76.348427 0.009875 420.210846
10 420.210846 -0.000715 0.000000 -0.000450 60.505089 -0.004066 420.210846
[L_Toe3_02]
8 329.270111 0.000954 0.000000 0.001177 -80.856644 0.001177 329.270111
9 329.270111 0.000954 0.000000 0.001180 -78.435326 0.001180 329.270111
10 329.270111 0.000954 0.000000 0.001185 -73.762413 0.001186 329.270111
[L_Toe3_03]
8 439.137451 -0.001907 0.000954 -179.996628 77.130653 -179.993103 439.137451
9 439.137451 -0.001907 0.000954 -179.985809 85.867676 -179.982315 439.137451
10 439.137451 -0.001907 0.000954 0.015920 81.544922 0.015920 439.137451
[planeLockWeightLeft]
8 999.999268 0.098267 0.075948 -0.011826 -0.004376 0.005620 999.999268
9 999.999268 0.098267 0.075930 -0.011826 -0.004376 0.005620 999.999268
10 999.999329 0.098267 0.075912 -0.011826 -0.004376 0.005620 999.999329
[R_Leg01]
8 761.455627 -0.001907 -0.000358 128.305695 -9.499761 27.346003 761.455688
9 761.455627 -0.001907 -0.000358 128.133118 -8.506753 27.929785 761.455688
10 761.455627 -0.001907 -0.000358 127.774414 -6.885940 29.551849 761.455688
[R_Leg02]
8 1441.140625 0.000000 -0.000238 -1.647350 -0.300075 -133.859207 1441.140625
9 1441.140625 0.000000 -0.000238 -1.787736 -0.368627 -135.689285 1441.140625
10 1441.140625 0.000000 -0.000238 -1.817310 -0.439346 -136.490829 1441.140625
[R_Leg03]
8 1686.963989 0.000954 0.001431 0.080216 -0.041650 131.548889 1686.963989
9 1686.963989 0.000954 0.001431 0.081795 -0.046954 132.658249 1686.963989
10 1686.963989 0.000954 0.001431 0.087622 -0.050747 134.270874 1686.963989
[R_Foot]
8 3041.560059 -30.531288 -11.204481 -1.553295 -10.009612 63.306721 3041.734131
9 3041.560059 -30.531288 -11.204481 -2.383014 -4.393013 64.698204 3041.734131
10 3041.560059 -30.531288 -11.204481 -3.769075 2.112897 65.582718 3041.734131
[planeAlignerRight]
8 -70.931686 -573.995300 -330.192261 -3.891600 -73.153976 -95.554543 665.979614
9 -32.257954 -552.319519 -334.042664 17.173777 -71.576180 -115.572418 646.283203
10 12.958711 -522.104553 -335.441284 35.345798 -67.209686 -132.589890 620.710876
[R_Toe1_01]
8 -188.383347 -224.864899 21.052242 77.960243 11.213231 -172.084503 294.101532
9 -188.383347 -224.864899 21.052242 78.780144 18.690844 -172.682983 294.101532
10 -188.383347 -224.864899 21.052242 79.400986 27.607328 -173.311081 294.101532
[R_Toe2_01]
8 200.637817 -220.002121 -148.787384 -80.993187 25.392378 -53.262699 332.857574
9 200.637817 -220.002121 -148.787384 -74.584061 20.121960 -49.194473 332.857574
10 200.637817 -220.002121 -148.787384 -67.711830 13.653725 -45.245911 332.857574
[R_Toe3_01]
8 188.606735 -220.092957 191.126343 -62.518391 -12.918119 -77.021011 347.192566
9 188.606735 -220.092957 191.126343 -55.263142 -16.543434 -78.443848 347.192566
10 188.606735 -220.092957 191.126343 -46.272110 -20.580299 -80.939415 347.192566
[planeLockWeightRight]
8 999.999695 0.000305 0.076110 -0.011823 -0.004379 -0.000027 999.999695
9 999.999695 0.000305 0.076107 -0.011823 -0.004379 -0.000027 999.999695
10 999.999695 0.000305 0.076104 -0.011823 -0.004379 -0.000027 999.999695
[R_Toe1_02]
8 413.762085 0.000477 -0.000119 0.001391 -25.033716 0.001391 413.762085
9 413.762085 0.000477 -0.000119 0.001391 -25.087175 0.001391 413.762085
10 413.762085 0.000477 -0.000119 0.001390 -25.140638 0.001390 413.762085
[R_Toe1_03]
8 464.317810 0.000000 0.001088 0.006152 68.005402 0.006152 464.317810
9 464.317810 0.000000 0.001088 0.006026 67.540260 0.006026 464.317810
10 464.317810 0.000000 0.001088 0.005619 65.884254 0.005619 464.317810
[R_Toe2_02]
8 342.234741 -0.000954 0.000238 0.001198 -67.020203 0.001198 342.234741
9 342.234741 -0.000954 0.000238 0.001197 -67.376480 0.001197 342.234741
10 342.234741 -0.000954 0.000238 0.001196 -67.732704 0.001196 342.234741
[R_Toe2_03]
8 420.210846 0.000715 -0.000268 0.007910 72.934097 0.007910 420.210846
9 420.210846 0.000715 -0.000268 0.008456 74.045059 0.008456 420.210846
10 420.210846 0.000715 -0.000268 0.008768 74.616020 0.008768 420.210846
[R_Toe3_02]
8 329.270355 -0.000477 -0.000954 0.001184 -75.085129 0.001184 329.270355
9 329.270355 -0.000477 -0.000954 0.001182 -76.460907 0.001182 329.270355
10 329.270355 -0.000477 -0.000954 0.001180 -77.836548 0.001180 329.270355
[R_Toe3_03]
8 439.137939 0.000238 0.001431 -0.014255 84.731285 -0.010754 439.137939
9 439.137939 0.000238 0.001431 -0.046581 88.529800 -0.043082 439.137939
10 439.137939 0.000238 0.001431 -179.973465 87.671066 -179.969971 439.137939
[Rear_Leg02]
8 1162.777710 -0.029802 0.005960 0.545652 -2.936065 -121.906311 1162.777710
9 1162.777710 -0.029802 0.005960 0.500644 -2.945069 -120.983948 1162.777710
10 1162.777710 -0.029802 0.005960 0.442968 -2.953938 -119.827431 1162.777710
[Rear_Leg03]
8 607.192505 -0.013351 -0.073195 0.006484 -0.002084 63.843220 607.192505
9 607.192505 -0.013351 -0.073195 0.006490 -0.002062 63.466022 607.192505
10 607.192505 -0.013351 -0.073195 0.006497 -0.002041 63.088814 607.192505
[Rear_Leg04]
8 995.874512 -0.020504 -0.011921 -0.040381 -0.015536 57.186195 995.874573
9 995.874512 -0.020504 -0.011921 -0.040276 -0.015807 56.415825 995.874573
10 995.874512 -0.020504 -0.011921 -0.040167 -0.016077 55.645485 995.874573
[Rear_Foot]
8 3096.176270 -0.067472 -0.041425 -144.736649 85.648552 48.268272 3096.176270
9 3096.176270 -0.067472 -0.041425 -146.425354 85.454803 46.635147 3096.176270
10 3096.176270 -0.067472 -0.041425 -148.051575 85.248741 45.139320 3096.176270
[planeAlignerCenter]
8 -34.468689 -15.213013 -760.265625 12.239131 -2.672991 -179.999741 761.198669
9 -55.522655 -15.306701 -758.230286 12.239351 -4.397429 179.999619 760.414490
10 -79.202103 -15.259704 -756.114990 12.239583 -6.122255 179.998947 760.404968
[Rear_Toe1_01]
8 0.653352 83.966492 -371.173737 4.449910 40.690304 93.790024 380.553192
9 0.653352 83.966492 -371.173737 7.125219 40.568359 95.967575 380.553192
10 0.653352 83.966492 -371.173737 9.787014 40.369545 98.130829 380.553192
[Rear_Toe2_01]
8 178.200760 -294.826019 -362.060547 -10.455172 35.121456 -68.898308 499.765686
9 178.200760 -294.826019 -362.060547 -12.409596 35.929817 -70.521690 499.765686
10 178.200760 -294.826019 -362.060547 -14.672767 36.867310 -72.423889 499.765686
[Rear_Toe3_01]
8 -153.359680 -308.780914 -362.060852 0.338116 31.155750 -114.913124 499.952881
9 -153.359680 -308.780914 -362.060852 -1.520656 30.065121 -116.364922 499.952881
10 -153.359680 -308.780914 -362.060852 -3.327553 28.934740 -117.760139 499.952881
[planeLockWeightCenter]
8 1000.000366 0.000112 0.076178 -0.011814 -0.004373 -0.000015 1000.000366
9 1000.000366 0.000128 0.076165 -0.011814 -0.004373 -0.000015 1000.000366
10 1000.000366 0.000145 0.076152 -0.011814 -0.004373 -0.000015 1000.000366
[Rear_Toe1_02]
8 379.707825 0.194073 0.000477 -0.000265 -32.000763 0.006947 379.707855
9 379.707825 0.194073 0.000477 -0.000269 -32.047066 0.006949 379.707855
10 379.707825 0.194073 0.000477 -0.000272 -32.093380 0.006951 379.707855
[Rear_Toe1_03]
8 500.129700 0.165701 0.000119 0.000180 54.518887 0.007523 500.129761
9 500.129700 0.165701 0.000119 0.000157 54.316010 0.007504 500.129761
10 500.129700 0.165701 0.000119 0.000134 54.113121 0.007485 500.129761
[Rear_Toe2_02]
8 340.494507 0.000238 -0.000954 0.001190 -70.975906 0.001190 340.494507
9 340.494507 0.000238 -0.000954 0.001189 -71.309479 0.001189 340.494507
10 340.494507 0.000238 -0.000954 0.001189 -71.643013 0.001189 340.494507
[Rear_Toe2_03]
8 433.103577 0.000000 0.000238 0.007365 71.659859 0.007365 433.103546
9 433.103577 0.000000 0.000238 0.007594 72.218071 0.007594 433.103546
10 433.103577 0.000000 0.000238 0.007838 72.776268 0.007838 433.103546
[Rear_Toe3_02]
8 340.494141 -0.000358 -0.000477 0.008105 -66.791710 -0.009279 340.494171
9 340.494141 -0.000358 -0.000477 0.007962 -66.397751 -0.009136 340.494171
10 340.494141 -0.000358 -0.000477 0.007750 -65.791695 -0.008926 340.494171
[Rear_Toe3_03]
8 433.103577 0.001431 -0.000238 -0.000894 65.265549 -0.004473 433.103546
9 433.103577 0.001431 -0.000238 -0.000833 64.701767 -0.004416 433.103546
10 433.103577 0.001431 -0.000238 -0.000742 63.810638 -0.004332 433.103546
[Back_Bone]
8 1312.175781 -701.934692 0.000954 0.000023 -0.000007 -85.606667 1488.125488
9 1312.175781 -701.934692 0.000954 0.000023 -0.000007 -85.606667 1488.125488
10 1312.175781 -701.934692 0.000954 0.000023 -0.000007 -85.606667 1488.125488
[Head]
8 1406.159424 809.709290 0.001431 0.000625 -1.475623 7.768024 1622.625488
9 1406.159424 809.709290 0.001431 0.726085 -1.073234 7.682176 1622.625488
10 1406.159424 809.709290 0.001431 1.450903 -0.669768 7.601431 1622.625488
[Motor_Bone]
8 1158.364380 -417.834747 0.000477 -0.048939 -7.933693 -106.393265 1231.419434
9 1158.364380 -417.834747 0.000477 -0.047923 -8.631885 -106.435730 1231.419434
10 1158.364380 -417.834747 0.000477 -0.050205 -8.568406 -106.432945 1231.419434
[Ping_Mechanism]
8 1236.005615 -441.014557 17.292507 0.000103 -0.000053 82.120995 1312.441528
9 1234.935547 -439.977417 23.905336 0.000103 -0.000053 82.120995 1311.189331
10 1232.694702 -437.691345 27.884256 0.000103 -0.000053 82.120995 1308.391235
[BN_LookIK]
8 193.241119 1380.371704 -0.002861 0.000000 89.965736 -31.038179 1393.832153
9 193.241119 1380.371704 -0.002861 0.000000 89.965736 -31.038179 1393.832153
10 193.241119 1380.371704 -0.002861 0.000000 89.965736 -31.038179 1393.832153
[bottomMouth]
8 -435.092926 615.759399 -0.000954 -0.000022 0.000016 73.527184 753.966492
9 -435.092926 615.759399 -0.000954 -0.000022 0.000016 73.527184 753.966492
10 -435.092926 615.759399 -0.000954 -0.000022 0.000016 73.527184 753.966492
[L_Mouth01]
8 554.440979 7.658243 838.222046 150.204178 23.759130 109.605339 1005.027161
9 554.440979 7.658243 838.222046 150.204178 23.759130 109.605339 1005.027161
10 554.440979 7.658243 838.222046 150.204178 23.759130 109.605339 1005.027161
[L_mouthFront]
8 551.629089 934.514771 339.150421 0.000081 2.804060 79.119301 1136.941284
9 551.629089 934.514771 339.150421 0.000081 2.804060 79.119301 1136.941284
10 551.629089 934.514771 339.150421 0.000081 2.804060 79.119301 1136.941284
[mouthGun]
8 55.332661 1627.420898 0.000000 0.000023 0.000009 -11.038128 1628.361328
9 55.332661 1627.420898 0.000000 0.000023 0.000009 -11.038128 1628.361328
10 55.332661 1627.420898 0.000000 0.000023 0.000009 -11.038128 1628.361328
[R_Mouth01]
8 554.442383 7.659197 -838.223938 29.795891 -23.759109 109.605331 1005.029541
9 554.442383 7.659197 -838.223938 29.795891 -23.759109 109.605331 1005.029541
10 554.442383 7.659197 -838.223938 29.795891 -23.759109 109.605331 1005.029541
[R_mouthFront]
8 551.629089 934.514282 -339.151367 0.000029 -2.803930 79.119133 1136.941162
9 551.629089 934.514282 -339.151367 0.000029 -2.803930 79.119133 1136.941162
10 551.629089 934.514282 -339.151367 0.000029 -2.803930 79.119133 1136.941162
[TopMouth]
8 461.269867 -56.106091 -0.008583 -0.000059 -0.000268 92.025169 464.669525
9 461.269867 -56.106091 -0.008583 -0.000059 -0.000268 92.025169 464.669525
10 461.269867 -56.106091 -0.008583 -0.000059 -0.000268 92.025169 464.669525
[weapon_bone]
8 -987.239868 1448.372803 0.001431 0.000000 89.965736 -31.038221 1752.833740
9 -987.239868 1448.372803 0.001431 0.000000 89.965736 -31.038221 1752.833740
10 -987.239868 1448.372803 0.001431 0.000000 89.965736 -31.038221 1752.833740
